<svg width="1024" height="1024" viewBox="0 0 1024 1024" fill="none" xmlns="http://www.w3.org/2000/svg">
    <defs>
        <!-- Modern gradient for the shield -->
        <linearGradient id="shield-gradient" x1="512" y1="128" x2="512" y2="928" gradientUnits="userSpaceOnUse">
            <stop stop-color="#5A9FFF"/>
            <stop offset="1" stop-color="#007AFF"/>
        </linearGradient>

        <!-- Background gradient for the squircle -->
        <linearGradient id="bg-gradient" x1="0" y1="0" x2="1024" y2="1024" gradientUnits="userSpaceOnUse">
            <stop stop-color="#EAF2FF"/>
            <stop offset="1" stop-color="#DDE8FF"/>
        </linearGradient>
        
        <!-- Filter for the drop shadow -->
        <filter id="drop-shadow" x="-10%" y="-10%" width="120%" height="120%">
            <feDropShadow dx="8" dy="12" stdDeviation="10" flood-color="#000000" flood-opacity="0.25"/>
        </filter>
    </defs>

    <!-- 1. Background Squircle -->
    <rect width="1024" height="1024" rx="228.8" fill="url(#bg-gradient)"/>

    <!-- 2. Shield Group with Shadow -->
    <g filter="url(#drop-shadow)">
        <!-- Shield Path -->
        <path d="M512 128L192 256V512C192 705.6 329.6 884.8 512 928C694.4 884.8 832 705.6 832 512V256L512 128Z" fill="url(#shield-gradient)"/>
        
        <!-- 3. Padlock -->
        <path transform="translate(362, 378) scale(12.5)" d="M18 8h-1V6c0-2.76-2.24-5-5-5S7 3.24 7 6v2H6c-1.1 0-2 .9-2 2v10c0 1.1.9 2 2 2h12c1.1 0 2-.9 2-2V10c0-1.1-.9-2-2-2zm-6 9c-1.1 0-2-.9-2-2s.9-2 2-2 2 .9 2 2-.9 2-2 2zM9 8V6c0-1.66 1.34-3 3-3s3 1.34 3 3v2H9z" fill="white"/>
    </g>
</svg>
